<?xml version="1.0" ?><svg height="24" id="svg8" version="1.1" viewBox="0 0 24 24" width="24" xmlns="http://www.w3.org/2000/svg" xmlns:cc="http://creativecommons.org/ns#" xmlns:dc="http://purl.org/dc/elements/1.1/" xmlns:rdf="http://www.w3.org/1999/02/22-rdf-syntax-ns#" xmlns:svg="http://www.w3.org/2000/svg"><defs id="defs2"><rect height="7.0346723" id="rect2504" width="7.9207187" x="-1.1008456" y="289.81766"/></defs><g id="g5820" style="display:inline" transform="translate(0,-1.566375)"><path d="m -28,-76.933594 c -4.412348,0 -8,3.587763 -8,8 0,0.675979 0.08545,1.347545 0.253906,2 H -38.5 v 7.867188 h 21 v -7.867188 h -2.753906 c 0.168163,-0.652393 0.253906,-1.324447 0.253906,-2 0,-4.412237 -3.587652,-8 -8,-8 z m 0,1 c 0.289501,0 0.586513,0.129588 0.908203,0.445313 0.32169,0.315724 0.643815,0.813067 0.917969,1.449219 0.34436,0.79906 0.59928,1.829341 0.751953,2.972656 h -5.15625 c 0.152673,-1.143315 0.407593,-2.173596 0.751953,-2.972656 0.274154,-0.636152 0.596279,-1.133495 0.917969,-1.449219 0.32169,-0.315725 0.618703,-0.445313 0.908203,-0.445313 z m -2.089844,0.316406 c -0.243273,0.34465 -0.462632,0.736899 -0.654297,1.181641 -0.404286,0.938114 -0.685878,2.097349 -0.84375,3.369141 h -3.080078 c 0.690699,-2.167543 2.404353,-3.873908 4.578125,-4.550782 z m 4.179688,0 c 2.173772,0.676874 3.887426,2.383239 4.578125,4.550782 h -3.080078 c -0.157872,-1.271792 -0.439465,-2.431027 -0.84375,-3.369141 -0.191665,-0.444742 -0.411024,-0.836991 -0.654297,-1.181641 z m -8.990235,5.550782 h 3.216797 c -0.02367,0.372936 -0.04883,0.744943 -0.04883,1.132812 0,0.715157 0.05442,1.347263 0.138672,2 h -3.107422 c -0.193511,-0.648826 -0.298828,-1.321801 -0.298828,-2 0,-0.38678 0.03955,-0.76325 0.09961,-1.132812 z m 4.216797,0 h 5.367188 c 0.02541,0.371234 0.04883,0.744723 0.04883,1.132812 0,0.720898 -0.0537,1.336505 -0.144531,2 h -5.175782 c -0.09082,-0.663484 -0.144531,-1.279161 -0.144531,-2 0,-0.388089 0.02341,-0.761578 0.04883,-1.132812 z m 6.367188,0 h 3.216797 c 0.06006,0.369562 0.09961,0.746032 0.09961,1.132812 0,0.678412 -0.10525,1.351139 -0.298828,2 h -3.107422 c 0.08416,-0.652782 0.138672,-1.285232 0.138672,-2 0,-0.387869 -0.02516,-0.759876 -0.04883,-1.132812 z M -37.5,-65.933594 h 19 v 5.867188 h -19 z" id="ellipse5757" style="color:#000000;font-style:normal;font-variant:normal;font-weight:normal;font-stretch:normal;font-size:medium;line-height:normal;font-family:sans-serif;font-variant-ligatures:normal;font-variant-position:normal;font-variant-caps:normal;font-variant-numeric:normal;font-variant-alternates:normal;font-variant-east-asian:normal;font-feature-settings:normal;font-variation-settings:normal;text-indent:0;text-align:start;text-decoration:none;text-decoration-line:none;text-decoration-style:solid;text-decoration-color:#000000;letter-spacing:normal;word-spacing:normal;text-transform:none;writing-mode:lr-tb;direction:ltr;text-orientation:mixed;dominant-baseline:auto;baseline-shift:baseline;text-anchor:start;white-space:normal;shape-padding:0;shape-margin:0;inline-size:0;clip-rule:nonzero;display:inline;overflow:visible;visibility:visible;opacity:1;isolation:auto;mix-blend-mode:normal;color-interpolation:sRGB;color-interpolation-filters:linearRGB;solid-color:#000000;solid-opacity:1;vector-effect:none;fill:#000000;fill-opacity:1;fill-rule:nonzero;stroke:none;stroke-linecap:butt;stroke-linejoin:miter;stroke-miterlimit:4;stroke-dasharray:none;stroke-dashoffset:0;stroke-opacity:1;paint-order:fill markers stroke;color-rendering:auto;image-rendering:auto;shape-rendering:auto;text-rendering:auto;enable-background:accumulate;stop-color:#000000;stop-opacity:1" transform="translate(40,81.566375)"/><g id="g5791" style="stroke-width:1.12637" transform="matrix(0.90852756,0,0,0.86755777,1.0976693,2.4589418)"><path d="m 10.271484,16.451172 c -0.3391926,0.161458 -0.6783852,0.322917 -1.0175778,0.484375 0.6053009,1.264092 1.2095818,2.528672 1.8144528,3.792969 0.323568,-0.509766 0.647135,-1.019531 0.970703,-1.529297 0.366537,0.501302 0.733073,1.002604 1.09961,1.503906 0.53518,-1.266917 1.070095,-2.533946 1.605469,-3.800781 -0.345703,-0.146484 -0.691407,-0.292969 -1.03711,-0.439453 -0.279342,0.65633 -0.55607,1.313768 -0.833984,1.970703 -0.30013,-0.410156 -0.600261,-0.820313 -0.900391,-1.230469 -0.255208,0.401693 -0.510417,0.803385 -0.765625,1.205078 -0.311895,-0.652322 -0.624575,-1.304269 -0.935547,-1.957031 z" id="path5779" style="color:#000000;font-style:normal;font-variant:normal;font-weight:normal;font-stretch:normal;font-size:medium;line-height:normal;font-family:sans-serif;font-variant-ligatures:normal;font-variant-position:normal;font-variant-caps:normal;font-variant-numeric:normal;font-variant-alternates:normal;font-variant-east-asian:normal;font-feature-settings:normal;font-variation-settings:normal;text-indent:0;text-align:start;text-decoration:none;text-decoration-line:none;text-decoration-style:solid;text-decoration-color:#000000;letter-spacing:normal;word-spacing:normal;text-transform:none;writing-mode:lr-tb;direction:ltr;text-orientation:mixed;dominant-baseline:auto;baseline-shift:baseline;text-anchor:start;white-space:normal;shape-padding:0;shape-margin:0;inline-size:0;clip-rule:nonzero;display:inline;overflow:visible;visibility:visible;opacity:1;isolation:auto;mix-blend-mode:normal;color-interpolation:sRGB;color-interpolation-filters:linearRGB;solid-color:#000000;solid-opacity:1;vector-effect:none;fill:#000000;fill-opacity:1;fill-rule:nonzero;stroke:none;stroke-linecap:square;stroke-linejoin:miter;stroke-miterlimit:4;stroke-dasharray:none;stroke-dashoffset:0;stroke-opacity:1;color-rendering:auto;image-rendering:auto;shape-rendering:auto;text-rendering:auto;enable-background:accumulate;stop-color:#000000;stop-opacity:1"/><g id="g5785" style="stroke-width:1.12637" transform="translate(-0.06323433)"><path d="M 4.265625,16.451172 C 3.9264323,16.61263 3.5872396,16.774089 3.2480469,16.935547 3.8533477,18.199639 4.4576288,19.464219 5.0625,20.728516 5.3860677,20.21875 5.7096354,19.708985 6.0332031,19.199219 6.3997396,19.700521 6.766276,20.201823 7.1328125,20.703125 7.6679926,19.436208 8.2029068,18.169179 8.7382812,16.902344 8.3925781,16.75586 8.046875,16.609375 7.7011719,16.462891 7.4218297,17.119221 7.1451021,17.776659 6.8671875,18.433594 6.5670573,18.023438 6.2669271,17.613281 5.9667969,17.203125 5.7115886,17.604818 5.4563802,18.00651 5.2011719,18.408203 4.8892768,17.755881 4.5765964,17.103935 4.265625,16.451172 Z" id="path5777" style="color:#000000;font-style:normal;font-variant:normal;font-weight:normal;font-stretch:normal;font-size:medium;line-height:normal;font-family:sans-serif;font-variant-ligatures:normal;font-variant-position:normal;font-variant-caps:normal;font-variant-numeric:normal;font-variant-alternates:normal;font-variant-east-asian:normal;font-feature-settings:normal;font-variation-settings:normal;text-indent:0;text-align:start;text-decoration:none;text-decoration-line:none;text-decoration-style:solid;text-decoration-color:#000000;letter-spacing:normal;word-spacing:normal;text-transform:none;writing-mode:lr-tb;direction:ltr;text-orientation:mixed;dominant-baseline:auto;baseline-shift:baseline;text-anchor:start;white-space:normal;shape-padding:0;shape-margin:0;inline-size:0;clip-rule:nonzero;display:inline;overflow:visible;visibility:visible;opacity:1;isolation:auto;mix-blend-mode:normal;color-interpolation:sRGB;color-interpolation-filters:linearRGB;solid-color:#000000;solid-opacity:1;vector-effect:none;fill:#000000;fill-opacity:1;fill-rule:nonzero;stroke:none;stroke-linecap:square;stroke-linejoin:miter;stroke-miterlimit:4;stroke-dasharray:none;stroke-dashoffset:0;stroke-opacity:1;color-rendering:auto;image-rendering:auto;shape-rendering:auto;text-rendering:auto;enable-background:accumulate;stop-color:#000000;stop-opacity:1"/><path d="m 16.402344,16.451172 c -0.338542,0.161458 -0.677083,0.322917 -1.015625,0.484375 0.6053,1.264092 1.209582,2.528672 1.814453,3.792969 0.323568,-0.509115 0.647135,-1.018229 0.970703,-1.527344 0.365885,0.500651 0.731771,1.001302 1.097656,1.501953 0.536159,-1.266778 1.068395,-2.53522 1.607422,-3.800781 -0.346354,-0.146484 -0.692708,-0.292969 -1.039062,-0.439453 -0.276736,0.657808 -0.554652,1.315119 -0.832032,1.972656 -0.30013,-0.410807 -0.60026,-0.821615 -0.90039,-1.232422 -0.255208,0.401693 -0.510417,0.803385 -0.765625,1.205078 -0.312428,-0.652378 -0.62365,-1.305335 -0.9375,-1.957031 z" id="path5781" style="color:#000000;font-style:normal;font-variant:normal;font-weight:normal;font-stretch:normal;font-size:medium;line-height:normal;font-family:sans-serif;font-variant-ligatures:normal;font-variant-position:normal;font-variant-caps:normal;font-variant-numeric:normal;font-variant-alternates:normal;font-variant-east-asian:normal;font-feature-settings:normal;font-variation-settings:normal;text-indent:0;text-align:start;text-decoration:none;text-decoration-line:none;text-decoration-style:solid;text-decoration-color:#000000;letter-spacing:normal;word-spacing:normal;text-transform:none;writing-mode:lr-tb;direction:ltr;text-orientation:mixed;dominant-baseline:auto;baseline-shift:baseline;text-anchor:start;white-space:normal;shape-padding:0;shape-margin:0;inline-size:0;clip-rule:nonzero;display:inline;overflow:visible;visibility:visible;opacity:1;isolation:auto;mix-blend-mode:normal;color-interpolation:sRGB;color-interpolation-filters:linearRGB;solid-color:#000000;solid-opacity:1;vector-effect:none;fill:#000000;fill-opacity:1;fill-rule:nonzero;stroke:none;stroke-linecap:square;stroke-linejoin:miter;stroke-miterlimit:4;stroke-dasharray:none;stroke-dashoffset:0;stroke-opacity:1;color-rendering:auto;image-rendering:auto;shape-rendering:auto;text-rendering:auto;enable-background:accumulate;stop-color:#000000;stop-opacity:1"/></g></g></g></svg>